<?xml version="1.0" encoding="UTF-8" standalone="no"?>
<!-- Created with Inkscape (http://www.inkscape.org/) -->
<svg
   xmlns:svg="http://www.w3.org/2000/svg"
   xmlns="http://www.w3.org/2000/svg"
   version="1.0"
   width="897.06842"
   height="199.4165"
   id="svg13287"
   xml:space="preserve"><defs
     id="defs13290"><clipPath
       id="clipPath13302"><path
         d="M 0.029999,566.606 L 595.05,566.606 L 595.05,69.976 L 0.029999,69.976 L 0.029999,566.606 z"
         id="path13304" /></clipPath><clipPath
       id="clipPath13316"><path
         d="M 0.029999,841 L 595.05,841 L 595.05,0 L 0.029999,0 L 0.029999,841 z"
         id="path13318" /></clipPath><clipPath
       id="clipPath13328"><path
         d="M 355.117,5.8481 L 589.606,5.8481 L 589.606,55.0581 L 355.117,55.0581 L 355.117,5.8481 z"
         id="path13330" /></clipPath><clipPath
       id="clipPath13390"><path
         d="M 384.42,841 L 511.704,841 L 511.704,734.197 L 384.42,734.197 L 384.42,841 z"
         id="path13392" /></clipPath><clipPath
       id="clipPath13400"><path
         d="M 0.029999,841 L 595.05,841 L 595.05,0 L 0.029999,0 L 0.029999,841 z"
         id="path13402" /></clipPath><clipPath
       id="clipPath13424"><path
         d="M 0.029999,430.921 L 425.197,430.921 L 425.197,69.976 L 0.029999,69.976 L 0.029999,430.921 z"
         id="path13426" /></clipPath></defs><g
     transform="matrix(1.25,0,0,-1.25,-0.6707119,1049.4096)"
     id="g13296"><g
       id="g13485"><g
         id="g13458"><g
           id="g13432"><g
             transform="matrix(4.154922,0,0,3.8844217,-1682.7636,636.7492)"
             id="g13324"><g
               clip-path="url(#clipPath13328)"
               id="g13326"><g
                 id="g13332"><path
                   d="M 426.991,40.536 C 426.991,46.939 422.281,51.157 416.124,51.157 C 409.752,51.157 405.134,46.262 405.134,39.89 C 405.134,33.548 409.444,29.362 415.786,29.362 C 422.189,29.362 426.991,33.887 426.991,40.536 M 422.373,40.167 C 422.373,35.611 419.48,33.333 416.032,33.333 C 412.799,33.333 409.721,35.672 409.721,40.198 C 409.721,44.538 412.646,47.032 416.032,47.032 C 419.634,47.032 422.373,44.569 422.373,40.167"
                   id="path13334"
                   style="fill:#e53527;fill-opacity:1;fill-rule:evenodd;stroke:none" /><path
                   d="M 444.691,37.612 C 444.691,43.337 441.305,44.661 438.904,44.661 C 435.887,44.661 434.594,42.907 434.594,42.907 L 434.594,52.203 L 430.284,52.203 L 430.284,31.116 C 430.284,31.116 432.439,29.454 436.779,29.454 C 441.151,29.454 444.691,32.44 444.691,37.612 M 440.32,37.027 C 440.32,34.287 438.811,32.717 436.933,32.717 C 435.579,32.717 434.594,33.364 434.594,33.364 L 434.594,39.459 C 434.594,39.459 435.517,40.875 437.334,40.875 C 438.75,40.875 440.32,39.705 440.32,37.027"
                   id="path13336"
                   style="fill:#e53527;fill-opacity:1;fill-rule:evenodd;stroke:none" /><path
                   d="M 460.519,36.38 C 460.519,40.721 459.196,44.754 453.778,44.754 C 449.252,44.754 446.667,41.614 446.667,37.365 C 446.667,32.532 449.129,29.454 454.024,29.454 C 457.841,29.454 460.304,31.763 460.304,31.763 L 458.611,34.533 C 458.611,34.533 456.887,32.902 454.363,32.902 C 450.946,32.902 450.699,36.38 450.699,36.38 L 460.519,36.38 z M 456.24,39.212 L 450.792,39.212 C 450.792,39.212 450.976,41.675 453.593,41.675 C 456.364,41.675 456.24,39.212 456.24,39.212"
                   id="path13338"
                   style="fill:#e53527;fill-opacity:1;fill-rule:evenodd;stroke:none" /><path
                   d="M 473.418,44.169 C 473.418,44.169 472.556,44.754 471.171,44.754 C 468.216,44.754 467.569,41.829 467.569,41.829 L 467.569,44.353 L 463.259,44.353 L 463.259,29.823 L 467.569,29.823 L 467.569,37.704 C 467.569,40.382 469.108,40.813 470.278,40.813 C 471.448,40.813 472.279,40.259 472.279,40.259"
                   id="path13340"
                   style="fill:#e53527;fill-opacity:1;fill-rule:nonzero;stroke:none" /><path
                   d="M 489.82,37.612 C 489.82,43.337 486.434,44.661 484.033,44.661 C 481.016,44.661 479.723,42.907 479.723,42.907 L 479.723,52.203 L 475.413,52.203 L 475.413,31.116 C 475.413,31.116 477.568,29.454 481.909,29.454 C 486.28,29.454 489.82,32.44 489.82,37.612 M 485.449,37.027 C 485.449,34.287 483.941,32.717 482.063,32.717 C 480.708,32.717 479.723,33.364 479.723,33.364 L 479.723,39.459 C 479.723,39.459 480.647,40.875 482.463,40.875 C 483.879,40.875 485.449,39.705 485.449,37.027"
                   id="path13342"
                   style="fill:#e53527;fill-opacity:1;fill-rule:evenodd;stroke:none" /><path
                   d="M 504.14,29.823 L 504.14,39.767 C 504.14,44.23 500.138,44.754 498.23,44.754 C 494.228,44.754 492.011,42.722 492.011,42.722 L 493.243,39.582 C 493.243,39.582 495.059,41.337 497.306,41.337 C 500.169,41.337 500.108,39.52 500.108,38.597 C 496.352,38.597 491.765,38.012 491.765,33.671 C 491.765,30.778 493.859,29.454 496.383,29.454 C 498.938,29.454 500.015,31.64 500.138,32.132 L 500.138,29.823 L 504.14,29.823 z M 500.138,34.687 C 500.138,33.025 498.63,32.409 497.614,32.409 C 496.875,32.409 495.736,32.625 495.736,34.164 C 495.736,36.165 498.599,36.134 500.138,36.134"
                   id="path13344"
                   style="fill:#e53527;fill-opacity:1;fill-rule:evenodd;stroke:none" /><path
                   d="M 521.624,29.823 L 521.624,40.105 C 521.624,42.814 519.746,44.754 516.637,44.754 C 512.881,44.754 512.081,42.199 512.081,42.199 L 512.081,44.353 L 507.771,44.353 L 507.771,29.823 L 512.081,29.823 L 512.081,38.535 C 512.081,40.321 513.589,41.183 514.79,41.183 C 517.13,41.183 517.345,39.52 517.345,37.919 L 517.345,29.823"
                   id="path13346"
                   style="fill:#e53527;fill-opacity:1;fill-rule:nonzero;stroke:none" /><path
                   d="M 539.85,29.823 L 534.309,37.889 L 539.665,44.353 L 534.678,44.353 L 529.568,38.012 L 529.568,52.203 L 525.259,52.203 L 525.259,29.823 L 529.568,29.823 L 529.568,37.642 L 534.678,29.823"
                   id="path13348"
                   style="fill:#e53527;fill-opacity:1;fill-rule:nonzero;stroke:none" /><path
                   d="M 470.76,15.121 C 470.76,17.646 468.389,17.662 468.389,17.662 C 469.621,17.939 470.36,18.986 470.36,20.094 C 470.36,21.634 469.313,22.743 467.589,22.743 C 465.88,22.743 464.71,21.819 464.71,21.819 L 465.449,20.402 C 465.449,20.402 466.157,20.972 467.081,20.972 C 467.928,20.972 468.343,20.495 468.343,19.771 C 468.343,18.801 467.635,18.216 466.203,18.216 L 466.203,16.661 C 466.203,16.661 466.68,16.707 466.927,16.707 C 467.989,16.707 468.805,16.199 468.805,15.121 C 468.805,14.12 468.005,13.612 467.081,13.612 C 466.111,13.612 465.202,14.244 465.202,14.244 L 464.494,12.689 C 464.494,12.689 465.541,11.965 467.296,11.965 C 469.098,11.965 470.76,13.212 470.76,15.121"
                   id="path13350"
                   style="fill:#000000;fill-opacity:1;fill-rule:nonzero;stroke:none" /><path
                   d="M 482.425,18.37 C 482.425,20.618 480.377,20.818 480.377,20.818 C 480.377,20.818 482.086,21.234 482.086,23.205 C 482.086,24.775 480.901,25.699 478.499,25.699 C 476.544,25.699 475.204,25.514 475.204,25.514 L 475.204,15.044 C 475.204,15.044 476.42,14.859 478.314,14.859 C 480.993,14.859 482.425,16.245 482.425,18.37 M 479.931,22.696 C 479.931,21.85 479.453,21.28 478.268,21.28 C 477.714,21.28 477.313,21.311 477.313,21.311 L 477.313,23.897 C 477.313,23.897 477.621,23.959 478.36,23.959 C 479.361,23.959 479.931,23.482 479.931,22.696 M 480.27,18.201 C 480.27,17.261 479.869,16.476 478.545,16.476 C 477.806,16.476 477.313,16.63 477.313,16.63 L 477.313,19.756 C 477.313,19.756 477.868,19.786 478.437,19.786 C 479.777,19.786 480.27,19.155 480.27,18.201"
                   id="path13352"
                   style="fill:#000000;fill-opacity:1;fill-rule:evenodd;stroke:none" /><path
                   d="M 489.736,15.044 L 489.736,20.017 C 489.736,22.25 487.735,22.512 486.78,22.512 C 484.778,22.512 483.67,21.495 483.67,21.495 L 484.286,19.925 C 484.286,19.925 485.194,20.803 486.318,20.803 C 487.75,20.803 487.719,19.894 487.719,19.432 C 485.841,19.432 483.547,19.14 483.547,16.969 C 483.547,15.521 484.594,14.859 485.856,14.859 C 487.134,14.859 487.673,15.953 487.735,16.199 L 487.735,15.044 L 489.736,15.044 z M 487.735,17.477 C 487.735,16.645 486.98,16.338 486.472,16.338 C 486.103,16.338 485.533,16.445 485.533,17.215 C 485.533,18.216 486.965,18.201 487.735,18.201"
                   id="path13354"
                   style="fill:#000000;fill-opacity:1;fill-rule:evenodd;stroke:none" /><path
                   d="M 498.479,15.044 L 498.479,20.187 C 498.479,21.542 497.539,22.512 495.984,22.512 C 494.106,22.512 493.706,21.234 493.706,21.234 L 493.706,22.311 L 491.55,22.311 L 491.55,15.044 L 493.706,15.044 L 493.706,19.402 C 493.706,20.294 494.46,20.726 495.06,20.726 C 496.231,20.726 496.338,19.894 496.338,19.094 L 496.338,15.044"
                   id="path13356"
                   style="fill:#000000;fill-opacity:1;fill-rule:nonzero;stroke:none" /><path
                   d="M 507.592,15.044 L 504.82,19.078 L 507.499,22.311 L 505.005,22.311 L 502.449,19.14 L 502.449,26.238 L 500.294,26.238 L 500.294,15.044 L 502.449,15.044 L 502.449,18.955 L 505.005,15.044"
                   id="path13358"
                   style="fill:#000000;fill-opacity:1;fill-rule:nonzero;stroke:none" /><path
                   d="M 514.762,18.324 C 514.762,20.495 514.1,22.512 511.39,22.512 C 509.127,22.512 507.834,20.941 507.834,18.816 C 507.834,16.399 509.065,14.859 511.514,14.859 C 513.423,14.859 514.655,16.014 514.655,16.014 L 513.808,17.4 C 513.808,17.4 512.945,16.584 511.683,16.584 C 509.974,16.584 509.851,18.324 509.851,18.324 L 514.762,18.324 z M 512.622,19.74 L 509.897,19.74 C 509.897,19.74 509.989,20.972 511.298,20.972 C 512.684,20.972 512.622,19.74 512.622,19.74"
                   id="path13360"
                   style="fill:#000000;fill-opacity:1;fill-rule:evenodd;stroke:none" /><path
                   d="M 523.059,15.044 L 523.059,20.187 C 523.059,21.542 522.12,22.512 520.565,22.512 C 518.686,22.512 518.286,21.234 518.286,21.234 L 518.286,22.311 L 516.13,22.311 L 516.13,15.044 L 518.286,15.044 L 518.286,19.402 C 518.286,20.294 519.04,20.726 519.641,20.726 C 520.811,20.726 520.919,19.894 520.919,19.094 L 520.919,15.044"
                   id="path13362"
                   style="fill:#000000;fill-opacity:1;fill-rule:nonzero;stroke:none" /><path
                   d="M 537.297,15.845 L 537.297,20.002 L 535.203,20.002 L 535.203,17 C 535.203,17 534.695,16.722 533.633,16.722 C 531.446,16.722 530.014,17.831 530.014,20.248 C 530.014,22.65 531.4,23.697 533.232,23.697 C 534.864,23.697 536.05,22.789 536.05,22.789 L 536.666,24.898 C 536.666,24.898 535.465,25.699 533.202,25.699 C 530.615,25.699 527.659,24.005 527.659,20.218 C 527.659,16.168 530.43,14.859 533.417,14.859 C 535.85,14.859 537.297,15.845 537.297,15.845"
                   id="path13364"
                   style="fill:#000000;fill-opacity:1;fill-rule:nonzero;stroke:none" /><path
                   d="M 544.314,22.219 C 544.314,22.219 543.883,22.512 543.19,22.512 C 541.712,22.512 541.389,21.049 541.389,21.049 L 541.389,22.311 L 539.233,22.311 L 539.233,15.044 L 541.389,15.044 L 541.389,18.986 C 541.389,20.325 542.158,20.541 542.744,20.541 C 543.329,20.541 543.744,20.264 543.744,20.264"
                   id="path13366"
                   style="fill:#000000;fill-opacity:1;fill-rule:nonzero;stroke:none" /><path
                   d="M 552.116,15.044 L 552.116,22.311 L 549.96,22.311 L 549.96,18.093 C 549.96,17.138 549.36,16.615 548.59,16.615 C 547.497,16.615 547.373,17.385 547.373,17.985 L 547.373,22.311 L 545.218,22.311 L 545.218,17.369 C 545.218,15.814 546.157,14.859 547.589,14.859 C 549.544,14.859 549.975,16.368 549.975,16.368 L 549.975,15.044"
                   id="path13368"
                   style="fill:#000000;fill-opacity:1;fill-rule:nonzero;stroke:none" /><path
                   d="M 561.245,18.924 C 561.245,21.264 559.967,22.496 558.35,22.496 C 556.626,22.496 556.087,21.234 556.087,21.234 L 556.087,22.311 L 554.039,22.311 L 554.039,11.133 L 556.195,11.133 L 556.195,15.306 C 556.195,15.306 556.657,14.859 557.75,14.859 C 559.521,14.859 561.245,16.43 561.245,18.924 M 559.059,18.678 C 559.059,17.446 558.397,16.492 557.396,16.492 C 556.595,16.492 556.195,16.953 556.195,16.953 L 556.195,19.74 C 556.195,19.74 556.58,20.556 557.519,20.556 C 558.397,20.556 559.059,19.925 559.059,18.678"
                   id="path13370"
                   style="fill:#000000;fill-opacity:1;fill-rule:evenodd;stroke:none" /><path
                   d="M 569.913,18.924 C 569.913,21.264 568.635,22.496 567.019,22.496 C 565.294,22.496 564.755,21.234 564.755,21.234 L 564.755,22.311 L 562.708,22.311 L 562.708,11.133 L 564.863,11.133 L 564.863,15.306 C 564.863,15.306 565.325,14.859 566.418,14.859 C 568.189,14.859 569.913,16.43 569.913,18.924 M 567.727,18.678 C 567.727,17.446 567.065,16.492 566.064,16.492 C 565.263,16.492 564.863,16.953 564.863,16.953 L 564.863,19.74 C 564.863,19.74 565.248,20.556 566.187,20.556 C 567.065,20.556 567.727,19.925 567.727,18.678"
                   id="path13372"
                   style="fill:#000000;fill-opacity:1;fill-rule:evenodd;stroke:none" /><path
                   d="M 577.858,18.324 C 577.858,20.495 577.196,22.512 574.486,22.512 C 572.223,22.512 570.93,20.941 570.93,18.816 C 570.93,16.399 572.161,14.859 574.609,14.859 C 576.519,14.859 577.75,16.014 577.75,16.014 L 576.904,17.4 C 576.904,17.4 576.041,16.584 574.779,16.584 C 573.07,16.584 572.946,18.324 572.946,18.324 L 577.858,18.324 z M 575.718,19.74 L 572.993,19.74 C 572.993,19.74 573.085,20.972 574.394,20.972 C 575.78,20.972 575.718,19.74 575.718,19.74"
                   id="path13374"
                   style="fill:#000000;fill-opacity:1;fill-rule:evenodd;stroke:none" /></g></g></g></g></g></g></g></svg>